<?xml version="1.0" encoding="iso-8859-1"?>
<!-- Generator: Adobe Illustrator 19.0.0, SVG Export Plug-In . SVG Version: 6.00 Build 0)  -->
<svg version="1.1" id="Capa_1" xmlns="http://www.w3.org/2000/svg" xmlns:xlink="http://www.w3.org/1999/xlink" x="0px" y="0px"
	 viewBox="0 0 512 512" style="enable-background:new 0 0 512 512;" xml:space="preserve">
<path style="fill:#939598;" d="M486.4,8.533H25.6c-9.429,0-17.067,7.637-17.067,17.067V128c0,9.429,7.637,17.067,17.067,17.067
	h460.8c9.429,0,17.067-7.637,17.067-17.067V25.6C503.467,16.171,495.829,8.533,486.4,8.533z M93.867,76.8
	c0,9.429-7.637,17.067-17.067,17.067S59.733,86.229,59.733,76.8S67.371,59.733,76.8,59.733S93.867,67.371,93.867,76.8L93.867,76.8z"
	/>
<circle style="fill:#414042;" cx="76.8" cy="76.8" r="17.067"/>
<path style="fill:#939598;" d="M93.867,187.733H25.6c-9.429,0-17.067,7.637-17.067,17.067v102.4c0,9.429,7.637,17.067,17.067,17.067
	h460.8c9.429,0,17.067-7.637,17.067-17.067V204.8c0-9.429-7.637-17.067-17.067-17.067H93.867z M93.867,256
	c0,9.429-7.637,17.067-17.067,17.067S59.733,265.429,59.733,256c0-9.429,7.637-17.067,17.067-17.067S93.867,246.571,93.867,256
	L93.867,256z"/>
<circle style="fill:#414042;" cx="76.8" cy="256" r="17.067"/>
<path style="fill:#939598;" d="M93.867,366.933H25.6c-9.429,0-17.067,7.637-17.067,17.067v102.4c0,9.429,7.637,17.067,17.067,17.067
	h460.8c9.429,0,17.067-7.637,17.067-17.067V384c0-9.429-7.637-17.067-17.067-17.067H93.867z M93.867,435.2
	c0,9.429-7.637,17.067-17.067,17.067s-17.067-7.637-17.067-17.067c0-9.429,7.637-17.067,17.067-17.067S93.867,425.771,93.867,435.2
	L93.867,435.2z"/>
<circle style="fill:#414042;" cx="76.8" cy="435.2" r="17.067"/>
<g>
	<path style="fill:#231F20;" d="M486.4,153.6c14.14,0,25.6-11.46,25.6-25.6V25.6C512,11.46,500.54,0,486.4,0H25.6
		C11.46,0,0,11.46,0,25.6V128c0,14.14,11.46,25.6,25.6,25.6h25.6v25.6H25.6C11.46,179.2,0,190.66,0,204.8v102.4
		c0,14.14,11.46,25.6,25.6,25.6h25.6v25.6H25.6C11.46,358.4,0,369.86,0,384v102.4C0,500.54,11.46,512,25.6,512h460.8
		c14.14,0,25.6-11.46,25.6-25.6V384c0-14.14-11.46-25.6-25.6-25.6h-25.6v-25.6h25.6c14.14,0,25.6-11.46,25.6-25.6V204.8
		c0-14.14-11.46-25.6-25.6-25.6h-25.6v-25.6H486.4z M17.067,128V25.6c0-4.71,3.823-8.533,8.533-8.533h460.8
		c4.71,0,8.533,3.823,8.533,8.533V128c0,4.71-3.823,8.533-8.533,8.533H25.6C20.89,136.533,17.067,132.71,17.067,128z M102.4,179.2
		v-25.6h307.2v25.6H102.4z M68.267,153.6h17.067v25.6H68.267V153.6z M68.267,332.8h17.067v25.6H68.267V332.8z M409.6,332.8v25.6
		H102.4v-25.6H409.6z M494.933,384v102.4c0,4.71-3.823,8.533-8.533,8.533H25.6c-4.71,0-8.533-3.823-8.533-8.533V384
		c0-4.71,3.823-8.533,8.533-8.533h460.8C491.11,375.467,494.933,379.29,494.933,384z M443.733,358.4h-17.067v-25.6h17.067V358.4z
		 M494.933,204.8v102.4c0,4.71-3.823,8.533-8.533,8.533H25.6c-4.71,0-8.533-3.823-8.533-8.533V204.8c0-4.71,3.823-8.533,8.533-8.533
		h460.8C491.11,196.267,494.933,200.09,494.933,204.8z M443.733,179.2h-17.067v-25.6h17.067V179.2z"/>
	<path style="fill:#231F20;" d="M100.83,85.333h172.237c4.71,0,8.533-3.823,8.533-8.533s-3.823-8.533-8.533-8.533H100.83
		c-4.71-13.329-19.337-20.318-32.666-15.599S47.846,72.004,52.557,85.333s19.337,20.318,32.666,15.599
		C92.518,98.355,98.253,92.621,100.83,85.333z M68.267,76.8c0-4.71,3.823-8.533,8.533-8.533s8.533,3.823,8.533,8.533
		s-3.823,8.533-8.533,8.533S68.267,81.51,68.267,76.8z"/>
	<rect x="375.467" y="34.133" style="fill:#231F20;" width="17.067" height="17.067"/>
	<rect x="409.6" y="34.133" style="fill:#231F20;" width="17.067" height="17.067"/>
	<rect x="443.733" y="34.133" style="fill:#231F20;" width="17.067" height="17.067"/>
	<rect x="341.333" y="34.133" style="fill:#231F20;" width="17.067" height="17.067"/>
	<rect x="307.2" y="34.133" style="fill:#231F20;" width="17.067" height="17.067"/>
	<rect x="375.467" y="68.267" style="fill:#231F20;" width="17.067" height="17.067"/>
	<rect x="409.6" y="68.267" style="fill:#231F20;" width="17.067" height="17.067"/>
	<rect x="443.733" y="68.267" style="fill:#231F20;" width="17.067" height="17.067"/>
	<rect x="341.333" y="68.267" style="fill:#231F20;" width="17.067" height="17.067"/>
	<rect x="307.2" y="68.267" style="fill:#231F20;" width="17.067" height="17.067"/>
	<rect x="375.467" y="102.4" style="fill:#231F20;" width="17.067" height="17.067"/>
	<rect x="409.6" y="102.4" style="fill:#231F20;" width="17.067" height="17.067"/>
	<rect x="443.733" y="102.4" style="fill:#231F20;" width="17.067" height="17.067"/>
	<rect x="341.333" y="102.4" style="fill:#231F20;" width="17.067" height="17.067"/>
	<rect x="307.2" y="102.4" style="fill:#231F20;" width="17.067" height="17.067"/>
	<path style="fill:#231F20;" d="M273.067,247.467H100.83c-4.71-13.329-19.337-20.318-32.666-15.599
		c-13.338,4.71-20.318,19.337-15.607,32.666s19.337,20.318,32.666,15.599c7.287-2.577,13.022-8.311,15.599-15.599h172.245
		c4.71,0,8.533-3.823,8.533-8.533C281.6,251.29,277.777,247.467,273.067,247.467z M76.8,264.533c-4.71,0-8.533-3.823-8.533-8.533
		c0-4.71,3.823-8.533,8.533-8.533s8.533,3.823,8.533,8.533C85.333,260.71,81.51,264.533,76.8,264.533z"/>
	<rect x="375.467" y="213.333" style="fill:#231F20;" width="17.067" height="17.067"/>
	<rect x="409.6" y="213.333" style="fill:#231F20;" width="17.067" height="17.067"/>
	<rect x="443.733" y="213.333" style="fill:#231F20;" width="17.067" height="17.067"/>
	<rect x="341.333" y="213.333" style="fill:#231F20;" width="17.067" height="17.067"/>
	<rect x="307.2" y="213.333" style="fill:#231F20;" width="17.067" height="17.067"/>
	<rect x="375.467" y="247.467" style="fill:#231F20;" width="17.067" height="17.067"/>
	<rect x="409.6" y="247.467" style="fill:#231F20;" width="17.067" height="17.067"/>
	<rect x="443.733" y="247.467" style="fill:#231F20;" width="17.067" height="17.067"/>
	<rect x="341.333" y="247.467" style="fill:#231F20;" width="17.067" height="17.067"/>
	<rect x="307.2" y="247.467" style="fill:#231F20;" width="17.067" height="17.067"/>
	<rect x="375.467" y="281.6" style="fill:#231F20;" width="17.067" height="17.067"/>
	<rect x="409.6" y="281.6" style="fill:#231F20;" width="17.067" height="17.067"/>
	<rect x="443.733" y="281.6" style="fill:#231F20;" width="17.067" height="17.067"/>
	<rect x="341.333" y="281.6" style="fill:#231F20;" width="17.067" height="17.067"/>
	<rect x="307.2" y="281.6" style="fill:#231F20;" width="17.067" height="17.067"/>
	<path style="fill:#231F20;" d="M273.067,426.667H100.83c-4.71-13.329-19.337-20.318-32.666-15.599
		c-13.329,4.719-20.318,19.337-15.607,32.666s19.337,20.318,32.666,15.599c7.287-2.577,13.022-8.311,15.599-15.599h172.245
		c4.71,0,8.533-3.823,8.533-8.533S277.777,426.667,273.067,426.667z M76.8,443.733c-4.71,0-8.533-3.823-8.533-8.533
		s3.823-8.533,8.533-8.533s8.533,3.823,8.533,8.533S81.51,443.733,76.8,443.733z"/>
	<rect x="375.467" y="392.533" style="fill:#231F20;" width="17.067" height="17.067"/>
	<rect x="409.6" y="392.533" style="fill:#231F20;" width="17.067" height="17.067"/>
	<rect x="443.733" y="392.533" style="fill:#231F20;" width="17.067" height="17.067"/>
	<rect x="341.333" y="392.533" style="fill:#231F20;" width="17.067" height="17.067"/>
	<rect x="307.2" y="392.533" style="fill:#231F20;" width="17.067" height="17.067"/>
	<rect x="375.467" y="426.667" style="fill:#231F20;" width="17.067" height="17.067"/>
	<rect x="409.6" y="426.667" style="fill:#231F20;" width="17.067" height="17.067"/>
	<rect x="443.733" y="426.667" style="fill:#231F20;" width="17.067" height="17.067"/>
	<rect x="341.333" y="426.667" style="fill:#231F20;" width="17.067" height="17.067"/>
	<rect x="307.2" y="426.667" style="fill:#231F20;" width="17.067" height="17.067"/>
	<rect x="375.467" y="460.8" style="fill:#231F20;" width="17.067" height="17.067"/>
	<rect x="409.6" y="460.8" style="fill:#231F20;" width="17.067" height="17.067"/>
	<rect x="443.733" y="460.8" style="fill:#231F20;" width="17.067" height="17.067"/>
	<rect x="341.333" y="460.8" style="fill:#231F20;" width="17.067" height="17.067"/>
	<rect x="307.2" y="460.8" style="fill:#231F20;" width="17.067" height="17.067"/>
</g>
<g>
</g>
<g>
</g>
<g>
</g>
<g>
</g>
<g>
</g>
<g>
</g>
<g>
</g>
<g>
</g>
<g>
</g>
<g>
</g>
<g>
</g>
<g>
</g>
<g>
</g>
<g>
</g>
<g>
</g>
</svg>
